<?xml version="1.0"?>
<svg width="128" height="128" xmlns="http://www.w3.org/2000/svg" xmlns:svg="http://www.w3.org/2000/svg">
 <g class="layer">
  <title>Layer 1</title>
  <path d="m38.62,107.83c-4.76,-3.75 -9.84,-7.34 -13.32,-12.4c-7.31,-8.92 -12.94,-19.26 -16.78,-30.11c-2.33,-7.06 -3.12,-14.63 -6.13,-21.42c-3.13,-4.93 0.54,-10.31 5.93,-11.88c2.4,-0.46 6.63,-2.74 1.53,-1.1c-4.57,3.36 -5.01,-3.05 -0.33,-3.46c3.2,-0.43 4.38,-3.04 3.29,-5.41c-3.43,-2.24 8.33,-4.71 2.41,-8.05c-6.17,-6.65 8.63,-7.94 4.98,-0.37c-0.87,5.81 10.34,-1.07 7.74,5.64c2.65,3.22 9.91,0.73 9.72,5.26c3.85,0.27 5.18,3.5 8.78,3.75c3.75,1.69 10.54,3.03 11.81,7.25c-3.72,2.94 -12.33,-6.08 -12.74,2.07c1.13,12.04 0.83,24.44 5.24,35.9c2.08,6.94 7.13,12.4 11.69,17.8c4.37,5.29 10.27,9.02 16.31,12.16c5.28,2.49 10.98,4.14 16.74,5.18c2.33,-1.79 6.46,-8.42 10.1,-5.63c0.18,3.15 -7.23,6.58 -0.35,6.24c4.04,-1.22 6.85,3.12 10.18,-0.8c3.06,3.64 12.75,-2.32 10.56,5.1c-2.95,1.9 -7.25,0.75 -10.21,3.38c-4.88,-2.43 -8.75,2.17 -14.14,1.6c-5.99,1.07 -12.08,1.51 -18.16,1.51c-9.97,-0.79 -20.15,-1.11 -29.62,-4.58c-5.34,-1.55 -10.55,-4.59 -15.24,-7.63zm8.41,3.65c5.21,2.25 10.31,4.63 16.02,5.35c9.06,1.26 18.43,3.2 27.53,1.43c-4.12,-1.86 -8.38,0.72 -12.48,-1.33c-4.92,1.06 -10.2,-0.27 -15.2,-0.92c-5.69,-2.53 -11.82,-4.28 -17.15,-7.57c-6.65,-2.43 3.45,3.12 5.24,3.57c4.16,2.36 -4.57,-1.22 -5.81,-2.2c-3.48,-1.96 -3.93,-1.54 -0.35,0.44c0.72,0.42 1.44,0.87 2.2,1.23zm-9.92,-7.02c5.06,1.87 -0.02,-3.56 -2.33,-3.24c-1.02,-1.78 -3.92,-2.91 -1.88,-3.86c-3.67,1.27 -3.85,-4.84 -5.57,-3.97c-3.88,-1.23 -1.51,-5.57 -6.14,-8.24c-0.42,-2.82 -4.59,-5.25 -5.92,-9.49c-0.59,-2.17 -4.72,-8.4 -2.18,-2.6c2.16,5.59 5.96,10.37 9.12,15.15c2.45,4.55 5.36,9.3 9.82,12.14c1.51,1.46 2.96,3.68 5.09,4.13zm-14.56,-15.98c0.18,-0.77 0.92,1.64 0,0zm20.61,18.22c1.13,-0.5 -1.61,-0.63 0,0zm2.75,1c-0.28,-1.39 -1.25,0.78 0,0zm3.43,1.43c1.63,-1.55 -2.52,-0.98 0,0zm5.88,3.28c1,-1.46 -3.18,-0.55 0,0zm-11.29,-7.87c2.53,-1.64 -3.28,-0.02 0,0zm2.58,1.28c-0.08,-0.87 -0.92,0.38 0,0zm12.87,8.03c2.07,1.31 12.08,2.86 5.81,0.54c-1.05,0.23 -11.63,-3 -5.81,-0.54zm-20.44,-15.91c-0.2,-0.87 -3.21,-0.96 0,0zm5.99,3.49c1.57,-1.08 -3.23,-0.83 0,0zm5.04,3.1c2.23,-0.84 -3.64,-0.84 0,0zm-13.48,-9.24c2.43,1.86 9.8,0.24 3.72,-1.11c-2.76,-1.48 -9,-2.48 -4.75,0.89l1.04,0.23zm16.89,10.31c1.01,-1.72 -4.25,-0.99 0,0zm-5.13,-4.09c5.93,1.68 -4.99,-3.76 -1.46,-0.62l0.79,0.36l0.68,0.26zm10.29,5.95c5.62,0.06 -5.08,-0.77 0,0zm-24.21,-15.43c-0.21,-1.05 -1.39,0.09 0,0zm33.71,20.76c0.16,-1.89 -1.82,1.41 0,0zm-24.12,-14.89c-0.34,-0.99 -1.76,-0.05 0,0zm-9.05,-6.53c3.22,-0.19 -4.43,-1.42 0,0zm-10.74,-6.94c-0.41,-1.55 -3.51,-2.78 0,0zm28.19,17.88c-0.59,-0.68 -0.28,0.15 0,0zm17.54,10.77c-0.06,-1.02 -0.96,0.39 0,0zm-19.1,-12.36c0.32,-1.33 -2.75,-0.41 0,0zm-13.06,-8.29c2.4,-0.26 -3.85,-1.62 0,0zm22.1,13.74c3.74,-1.49 -3.65,-0.72 0,0zm-11.5,-7.8c4.31,0.55 -5.13,-2.94 -0.95,-0.32l0.95,0.32zm14.99,9.22c4.03,-2.41 2.7,5.64 6.84,0.68c4.08,-2.97 -3.52,3.68 1.5,0.53c3.64,-2.43 9,1.15 12.39,2.32c2.43,-0.12 4.81,2.11 7.31,0.75c4.81,-1.29 -9.41,-1.93 -5.69,-4.22c-4.4,1.28 -7.66,-1.53 -9.82,-4.35c-4.94,-1.14 -10.65,-3.66 -13.12,-8.04c-1,-1.64 1.45,0.24 -0.87,-2.45c-2.97,-2.65 -4.46,-5.65 -6.45,-8.87c-2.39,-1.27 -2.67,-5.02 -2.91,-0.12c0.02,-3.09 -2.88,-5.17 -3.59,-4.3c-0.01,-2.97 3.11,-1.49 0.92,-3.68c-0.47,-3.09 -2.02,-6.29 -2.48,-9.77c-0.72,-1.68 -0.1,-5.27 -2.47,-1.48c-0.86,4.02 -0.28,-4.93 1.06,-1.98c1.76,-3.01 -0.63,-2.66 -0.73,-2.24c1.15,-2.54 0.72,-6.15 -0.3,-4.77c0.61,-2.69 0.97,-9.91 -0.91,-8.63c1.14,-2.82 2.16,-12.88 -2.78,-9.04c-2,0.03 -5.46,0.72 -7.11,1.54c5.13,2.83 -0.52,1.02 -2.61,0.57c-0.27,2.62 -2.34,1.49 -4.93,1.51c4.13,0.51 -2.02,4.22 -4.38,2.78c-3.09,1.48 2.66,5.15 0.06,6.28c0.32,1.71 -4.72,-0.62 -4.32,3.33c-2.98,-1.26 -0.41,4.68 1.08,2.68c5.08,1.37 3.58,4.52 3.7,7.49c-0.83,1.73 -4.09,-4.08 -0.72,-3.81c-2.66,-4.31 -2.94,-1.55 -5.13,0.44c-0.51,0.15 5.62,2.85 1.77,4.19c3.39,0.53 3.49,3.49 4.18,5.36c2.04,2.12 1.62,-2.34 4.05,0.2c-1.54,-2.27 -8.16,-6.4 -2.84,-5.08c-0.03,-2.29 -0.97,-4.13 0.68,-4.09c1.62,-2.93 -1.7,7.23 1.95,3.5c1.01,-0.44 1.26,-2.93 3.07,0.24c2.63,2.59 0.96,4.47 -2.77,2.09c0.66,2.26 4.98,3.06 4.17,6.6c0.86,3.11 2.06,1.96 3.11,1.78c0.82,3.02 1.28,0.8 1.33,-0.64c3.76,0.81 2.88,3.03 4.05,4.58c2.59,1.17 -3.7,-7.93 0.74,-2.74c4.68,4.22 1.76,5.99 -2.44,5.31c2.66,-0.21 3.51,3.59 6.84,3.46c3.03,1.44 5.09,6.98 -0.14,4.67c-1.81,-1.63 -8.23,-3.65 -2.98,-0.54c4.84,2.24 8.68,3.58 13.35,6.4c3.33,2.39 4.79,5.11 6.05,5.65c-2.8,1.34 -8.46,-1.07 -4.26,-1.81c-2.62,-0.47 -5.56,-1.8 -3.05,1.46c2.13,1.78 7.56,1.6 8.54,1.79c-0.82,1.81 -2.24,1.96 0.03,2.09c-2.53,1.37 0.81,1.59 1.05,2.36zm-5.18,-14.64c-1.54,-1.61 -1.94,-4.63 -0.27,-2c0.84,0.34 2.74,4.93 0.27,2zm16.88,10.72c0.96,-0.07 0.02,0.73 0,0zm-19.31,-14.67c-0.07,-2.44 0.55,1.88 0,0zm-1.68,-2.26c-1.95,-3.74 2.44,1.07 0,0zm-20.34,-14.03c1.14,-0.3 0.56,1.95 0,0zm16.18,8.77c0.7,-2.62 0.82,2.21 0,0zm-11.43,-7.95c-0.8,-1.45 1.69,1.36 0,0zm9.81,3.14c-1.84,-4.11 1.31,-2.25 0.41,0.68l-0.41,-0.68zm-16.91,-11.27c-0.82,-1.35 -2.17,-5.31 -1.75,-6.52c0.39,1.97 4.19,8.48 1.86,2.69c-2.57,-4.84 3.07,1.58 3.66,2.78c0.27,1.2 -1.59,-0.33 -0.33,2.49c-2.3,-3.21 -1.35,1.78 -3.45,-1.44zm-5.22,-3.6c0.21,-3.14 1.19,2.15 0,0zm2.34,0.81c1.13,-2.38 1.9,3.3 0,0zm-5.65,-4.38c-1.95,-1.94 -3.36,-3.72 0.09,-1.2c1.33,0.06 -2.95,-4.05 0.32,-1.31c3.45,0.63 1.7,5.64 -0.41,2.51zm2.97,-0.08c1.13,-1.11 0.6,1.1 0,0zm1.82,0.59c-1.71,-3.21 2.08,1.35 0,0zm-3.63,-3.47c-5.65,-5.03 7.11,2.63 0.92,0.93l-0.92,-0.93zm16.2,9.41c-2.45,-1.46 -0.65,-10.34 0.18,-4.27c2.38,-0.77 -0.14,3.13 1.64,3.1c-0.27,2.45 -1.07,3.34 -1.82,1.17zm6,3.55c0.24,-2.68 0.51,1.82 0,0zm-1.05,-1.04c0.27,-1.14 0.03,1.35 0,0zm-20.05,-13.58c-3.64,-5.01 10.56,5.08 2.33,1.27c-0.87,-0.24 -1.9,-0.32 -2.33,-1.27zm11.55,6.11c-0.35,-4.22 0.77,0.7 0,0zm8.76,5.63c0.68,-2.41 0.06,1.59 0,0zm-19.75,-13.66c2.16,-0.46 8.95,3.79 2.71,1.22c-0.7,-0.78 -2.17,-0.43 -2.71,-1.22zm18.55,9.24c0.23,-4.32 1.29,-2.58 0.01,0.62l-0.01,-0.62zm-16.95,-10.75c0.88,-1.29 -2.34,-5.83 0.46,-1.63c1.22,0.96 3.5,1.61 1.48,2.02c3.2,2.82 -0.77,0.77 -1.94,-0.38zm16.03,9.4c0.61,-4.92 0.53,2.88 0,0zm-17.87,-13.94c0.68,-0.29 0.36,0.89 0,0zm4.18,2.49c1.08,-2.26 1.99,2.51 0,0zm11.79,6.55c0,-0.87 0.23,1.26 0,0zm-0.68,-1.51c-1.63,-4.04 1.52,2.14 0,0zm-1,-2.65c-0.28,-1.67 0.93,2.09 0,0zm1.63,-2.66c-1.13,-1.98 1.42,-8.73 1.7,-4.54c-1.18,3.25 -0.34,5.08 0.48,0.71c1.53,-3.45 -0.33,6.78 -2.18,3.83zm1.68,-10.03c0.5,-0.6 0.11,0.73 0,0zm-2.8,55.31c-0.66,-0.59 0.08,0.37 0,0zm5.78,2.93c3.22,0.83 3.2,-0.5 0.29,-0.89c-1.57,-1.45 -6.5,-3 -2.08,-0.18c0.3,0.73 1.23,0.71 1.79,1.07zm-11.42,-7.59c1.77,1.33 6.68,3.74 2.52,0.51c1.4,-1.62 -2.68,-2.49 -1.33,-3.58c-3.45,-2.11 -2.71,-1.91 -0.3,-1.85c-4.13,-1.85 0.6,-1.71 0.37,-2.66c-1.6,-0.32 -7.92,-2.82 -4.2,0.2c-3.78,-1.93 -0.9,0.72 -2.05,0.44c-3.87,-1.06 3.45,2.95 -0.61,1.95c2.22,1.76 5.97,4.5 0.93,1.86c-0.64,0.96 3.61,2.41 4.66,3.13zm6.05,3.48c7.35,2.36 -3.6,-2.91 0,0zm30.97,18.75c0.09,-1.46 -1.01,1.25 0,0zm3.18,1.34c1.7,-1.64 0.07,2.62 2.82,-0.41c0.03,-2.16 -0.08,-3.45 -3.15,-0.81c-0.84,0.47 -1.23,2.47 0.34,1.22zm-50.5,-31.72c-0.53,-2.05 -3.66,-2.04 0,0zm3.39,2.23c-1.26,-2.09 -4.5,-1.89 0,0zm19.33,11.65c1.89,1.68 8.67,1.23 2.29,0.2c-0.93,-1.4 -5.99,-1.06 -2.29,-0.2zm26.57,16.41c2.89,-2.43 -2.82,1.09 0,0zm6.04,4.16c0.02,-0.78 -1.25,0.34 0,0zm0.01,-1.09c3.22,-3.41 -3.12,0.2 0,0zm-63.71,-40.35c-2.74,-3.91 -1.7,-5.66 -4.35,-8.86c-0.51,-2.44 -4.54,-7.98 -2.08,-2.12c2.24,3.43 2.91,8.75 6.43,10.98zm62.7,39.27c5.92,-3.83 -2.42,-1.67 0,0zm4.52,1.77c2.97,-2.54 -1.87,-0.53 0,0zm-59.86,-38.36c0.86,-1.26 -2.18,-0.16 0,0zm58.93,37.15c2.87,-1.85 -0.66,-1.57 -0.52,0.17l0.52,-0.17zm-38.94,-24.54c-0.1,-1.25 -1.52,0.1 0,0zm2.41,1.39c-0.78,-1.55 -1.18,0.24 0,0zm41.13,24.4c3.68,-2.66 -2.23,-0.51 -0.77,0.51l0.77,-0.51zm-1.42,-0.68c3.01,-2.51 -3.15,1.11 0,0zm7.2,4.79c2.02,-1.34 -2.44,-0.43 0,0zm-67.46,-43.42c2.69,0.61 10.77,6.63 6,0.42c-2.44,-0.72 -0.98,-6.69 -3.47,-5.63c1.67,2.79 1.37,3.97 -2.14,2.22c-4.4,-2.15 -2.48,1.06 -1.61,1.95c-1.17,0.28 1.57,1.02 1.22,1.05zm-12.27,-9.7c0.48,-1.99 -4.45,-10.98 -2.33,-4.5c0.77,1.36 0.69,3.93 2.33,4.5zm22.53,13.9c-1.39,-1.16 -0.07,-0.17 0,0zm3.41,0.8c0,-2.12 -3.77,-0.87 0,0zm29.62,18.66c-0.56,-1.44 -2.23,-0.02 0,0zm1.42,1.05c-0.2,-0.81 -0.81,0.16 0,0zm11.74,7.39c1.13,-0.83 -1.41,-0.1 0,0zm-62.6,-40.22c3.23,-1.25 -3.46,-0.89 0,0zm46.83,29.5c-0.05,-2.09 -2.06,0.52 0,0zm-48.1,-32.48c2.07,-0.7 -1.93,-0.46 0,0zm6.01,2.92c-0.03,-0.69 -0.63,0.26 0,0zm73.44,45.03c2.67,-0.54 8.75,1.36 9.73,-0.71c-3.24,-0.08 -11.2,-2.29 -11.58,0.52l0.71,0.11l1.14,0.08zm-71.53,-44.55c0.06,-2.12 -1.64,-0.08 0,0zm-15.82,-10.98c-0.72,-4.03 -2.74,-0.61 0,0zm3.77,0.95c0.05,-1.29 -3.46,-1.16 0,0zm2.15,1.06c-0.62,-0.5 -0.48,0.64 0,0zm13.58,8.7c0.64,-0.59 -1.52,-0.43 0,0zm-15.01,-11.09c-0.37,-3.05 -4.37,-0.45 0,0zm-7.74,-5.02c-0.11,-1.41 -0.75,0.53 0,0zm1.15,-0.87c-0.19,-1.67 -0.99,0.21 0,0zm6.36,3.79c2.69,-1.06 -4.9,-2.18 -0.55,-0.2l0.55,0.2zm85.12,52.58c1.72,-1.58 -2.18,-0.48 0,0zm10.28,5.34c0.69,-2.04 -1.73,0.26 0,0zm-94.76,-61.25c0.29,-1.97 -2.13,0.39 0,0zm-9.04,-6.06c-0.48,-2.78 -0.42,-7.68 4.23,-6.02c-6.2,1.24 4.3,7.71 2.97,2.6c2.61,0.12 5.1,-1.54 3.74,0.99c5.15,-0.56 8.7,-5.02 13.67,-4.4c3.87,-0.52 8.1,-0.9 12.26,-2.45c3.42,-0.25 6.72,-3.94 4.85,-6.13c-4.67,-0.39 -9.57,0.19 -14.73,1.22c-5.72,1.19 -10.92,3.45 -16.7,4.43c-5.63,0.75 1.13,2.08 -0.48,2.38c-2.94,1.01 3.5,1.71 -0.38,2.78c-2.4,-0.46 -4.9,-1.28 -3.87,-3.81c-5.39,0.7 -10.13,2.94 -5.87,8.42l0.3,0zm12.99,-6.62c1.26,-4.66 6.77,3.83 2.07,0.62c-0.56,-0.43 -1.49,-0.77 -2.07,-0.62zm0.25,-2.26c1.82,-1.35 0.97,0.77 0,0zm2.32,0.05c0.17,-2.14 5.3,1.14 0.84,0.77l-0.84,-0.77zm3.16,-1.28c1.16,-1.35 0.34,1.2 0,0zm0.81,-0.54c1.93,-2.32 10.91,-1.48 4.34,-0.23c-1.76,-1.33 -3.11,0.79 -4.34,0.23zm11.73,-1.8c-0.29,-6.33 5.83,2.24 0,0zm3.33,-0.02c1.22,-3.19 4.73,-1.28 0.56,-0.64c0.09,0.34 -0.12,1.64 -0.56,0.64zm-26.87,16.91c3.64,-2.23 -3.86,-1.94 0,0zm2.69,0.74c1.27,-1.35 -2.77,-0.55 0,0zm-7.93,-5.62c2.08,-1.6 -2.45,-0.61 0,0zm107.37,67.17c0.06,-1.86 -1.59,0.83 0,0zm-10.91,-7.44c0.32,-2.14 -1.4,0.18 0,0zm13.92,8.16c2.91,0.01 8.81,-0.9 2.48,-0.9c-0.99,0.15 -5.78,0.12 -2.48,0.9zm-100.08,-63.58c2.35,-0.16 3.68,-2.59 -0.46,-2.45c-6.41,-0.66 5.65,2.2 -0.82,1.37c-0.87,0.57 1.23,1.24 1.28,1.08zm2.07,1.05c-0.25,-1.51 -0.73,0.8 0,0zm2.45,-6.55c1.01,-1.26 -1.42,-0.34 0,0zm-7.83,-13.06c4.2,-1.43 9.93,-3.03 11.91,0.7c-2.02,-2.42 -0.81,-4.82 1.09,-1.26c2.69,3.59 4.04,-1.63 2.29,-2.84c1.99,2.48 4.27,3.65 1.34,0.16c3.19,-3.83 -6.37,0.51 -8.55,0.46c-1.04,0.46 -10.79,2.48 -8.09,2.78zm2.47,-4.71c2.4,-1.8 8.28,1.08 4.5,-1.79c-0.37,-0.34 -8.28,2.17 -4.5,1.79zm8.73,0.36c2.8,0.07 -1.2,-3.76 2.13,-2.03c-0.55,-1.79 -3.88,-2.13 -5.52,-2.84c-0.92,1.63 1.87,4.89 3.39,4.86zm-7.2,-7.93c0.97,-1.31 -1.7,0.68 0,0zm3.56,0.86c4.52,-0.6 -1.15,-1.94 -0.91,-0.05l0.91,0.05zm-6.65,-5.2c-3.18,-4.16 5.98,0.7 2.75,-3.65c-2.71,-2.16 -5.33,2.43 -2.75,3.65zm40.77,21.96c1.45,-2.58 -6.01,-3.48 -0.98,-0.91c0.47,0.16 0.36,1.09 0.98,0.91z" fill="#ffffff" id="svg_1"/>
 </g>
</svg>