<?xml version="1.0" encoding="UTF-8"?>
<!DOCTYPE svg PUBLIC "-//W3C//DTD SVG 1.1//EN" "http://www.w3.org/Graphics/SVG/1.1/DTD/svg11.dtd">
<!-- Creator: CorelDRAW 2021 (64-Bit) -->
<svg xmlns="http://www.w3.org/2000/svg" xml:space="preserve" width="215.9mm" height="279.4mm" version="1.1" style="shape-rendering:geometricPrecision; text-rendering:geometricPrecision; image-rendering:optimizeQuality; fill-rule:evenodd; clip-rule:evenodd"
viewBox="0 0 21590 27940"
 xmlns:xlink="http://www.w3.org/1999/xlink"
 xmlns:xodm="http://www.corel.com/coreldraw/odm/2003">
 <defs>
  <style type="text/css">
   <![CDATA[
    .fil6 {fill:#132A3C;fill-rule:nonzero}
    .fil7 {fill:#132D45;fill-rule:nonzero}
    .fil5 {fill:#194C65;fill-rule:nonzero}
    .fil4 {fill:#1C708D;fill-rule:nonzero}
    .fil2 {fill:#2D75AA;fill-rule:nonzero}
    .fil0 {fill:#FEFEFE;fill-rule:nonzero}
    .fil1 {fill:url(#id0);fill-rule:nonzero}
    .fil3 {fill:url(#id1);fill-rule:nonzero}
   ]]>
  </style>
  <linearGradient id="id0" gradientUnits="userSpaceOnUse" x1="16456.92" y1="18524.63" x2="5106.55" y2="9925.03">
   <stop offset="0" style="stop-opacity:1; stop-color:#152C47"/>
   <stop offset="1" style="stop-opacity:1; stop-color:#1A5068"/>
  </linearGradient>
  <linearGradient id="id1" gradientUnits="userSpaceOnUse" x1="16396.97" y1="12913.19" x2="5534.93" y2="13912.81">
   <stop offset="0" style="stop-opacity:1; stop-color:#0F223B"/>
   <stop offset="1" style="stop-opacity:1; stop-color:#196C85"/>
  </linearGradient>
 </defs>
 <g id="Capa_x0020_1">
  <metadata id="CorelCorpID_0Corel-Layer"/>
  <g id="_2118857963056">
   <path class="fil0" d="M5175.28 17368.55c-110.49,-156.4 -187.33,-302.92 -207.91,-495.99 -15.96,-149.52 -8.6,-305.99 -8.15,-456.3l2.09 -759.33 0.63 -2493.86 0.32 -1825.36c-0.24,-263.28 -32.25,-614.44 11.54,-866.72 33.23,-191.35 136.39,-372.11 296.2,-485.27 26.47,-18.47 54.02,-35.17 82.63,-50.11 28.61,-14.94 58.06,-28 88.34,-39.19 30.27,-11.2 61.14,-20.41 92.61,-27.65 31.45,-7.25 63.23,-12.47 95.35,-15.66 221.35,-23.73 460.38,1.08 683.71,3.02l1306.33 3.3 5559.34 0.35 1694.47 -0.35c298.3,-0.18 618.2,21.43 913.9,-12.35 -4.13,-22.57 -7.41,-31.04 -18.1,-50.3l9.5 -12.67c5.24,5.34 10.4,10.74 15.69,16.03 95.89,96.15 211.3,102.76 331.26,152.51 323.4,134.09 473.34,474.21 478.87,804.57 7.36,437.62 -2.33,876.85 -2.27,1314.69l0.92 2870.78 3.04 1234.01c1.3,210.9 24.72,450.93 -7.11,658.92 -32.34,211.48 -158.73,436.54 -307.32,588.46 -199.44,203.94 -438.99,279.93 -720.3,281.04l-3404.68 -4.79 -2669.17 1.14 -2598 1.09c-360.71,0.16 -784.12,24.52 -1136.01,5.55 -251.89,-13.57 -427.73,-161.21 -587.72,-339.56zm613.46 -699.93c543.24,18.1 1092.78,1.24 1636.66,0.55l3035.38 -0.76 3559.33 0.58c609.87,0.08 1223.7,14.21 1833.09,-1.72 85.38,-2.22 192.11,4.47 265.98,-44.24 5.08,-3.33 9.87,-7.09 14.85,-10.61 5.53,-3.89 18.89,-12.59 23.89,-17.73 54.82,-56.3 66.81,-175.63 71.75,-251.91 13.39,-206.27 2.78,-420.18 2.73,-627.11l-0.37 -1174.99 1.43 -3635.38c-0.29,-195.52 -2.94,-369.22 -150.44,-514.27 -84.04,-82.65 -169.39,-139.35 -288.74,-152.34 -325.39,-35.46 -755.23,-8.63 -1094.98,-7.91l-2139.21 0.63 -4365.79 4.31c-797.19,-0.16 -1597.79,-18.15 -2394.47,-5.74 -143.38,2.22 -264.16,10.24 -367.48,123.22 -128.51,140.55 -92.61,386.24 -88.56,562.61l1.08 3698.58 -0.18 1190.5c0.21,209.68 -6.03,422.35 3.31,631.69 2.19,48.87 1.11,149.22 34.63,184.78 72.73,77.16 246.46,54.4 344.86,51.39 20.53,-0.64 40.8,-1.94 61.25,-4.13z"/>
   <path class="fil0" d="M6964.26 12495.24c81.2,23.81 156.31,54.32 197.01,134.22 24.2,47.52 20.63,98.29 3.7,147.51 -26.94,78.18 -91.23,132.37 -153.43,183.17 -195.77,162.35 -408.1,321.28 -586.24,502.36 69.45,74.88 141.95,143.94 217.83,212.28 143.99,123.45 491.12,347.1 502.9,540.54 3.81,62.44 -24.08,122.85 -67.61,166.69 -11.93,12.01 -24.71,23.12 -37.51,34.16 -39.08,12.27 -78.64,24.44 -119.86,26.27 -45.14,1.98 -80.78,-15.56 -117.03,-41.01 -135.09,-94.85 -250.32,-228.84 -368.19,-344.75 -129.98,-126.17 -261.73,-250.48 -395.23,-372.93 -36.33,-36.52 -68.48,-74.72 -92.93,-120.44 -22.83,-42.7 -28.65,-88.66 -10.37,-134.44 43.16,-108.08 761.95,-760.2 896.28,-861.66 40.59,-30.7 84.37,-51.47 130.68,-71.97z"/>
   <path class="fil0" d="M9086.8 12254.31c233.6,-40.19 847.67,-31.51 1080.58,6.83 302.29,49.71 595.9,188.54 775.18,444.79 219.1,313.16 216.96,664.44 152.85,1026.55 -87.71,286.68 -250.59,518.9 -520.07,661.38 -349.14,184.6 -752.34,165.84 -1134.5,167.91 -117.08,0.63 -245.7,21.77 -359.44,-14.29 -44,-13.94 -77.13,-40.14 -109.01,-72.68 -19.55,-47.18 -33.94,-90.3 -38.5,-141.55 -30.29,-340.87 -6.08,-702.68 -5.39,-1045.45 0.45,-224.16 -25.59,-635.87 16.3,-844.23 18.86,-93.9 65.06,-137.08 142,-189.26zm344.78 761.92c-0.59,369.89 -10.4,742.21 -0.48,1111.83 328.48,2.97 764.22,58.66 1015.92,-198.51 102.29,-104.54 172.75,-277.58 174.18,-425.51 2.15,-29.01 3.82,-58.06 5.02,-87.15 7.52,-194.92 -28.44,-414.82 -168.85,-559.94 -248.21,-256.54 -698.5,-201.24 -1024.6,-199.15l-1.19 358.43z"/>
   <path class="fil0" d="M12677.27 13244.49c252.18,-250.75 590.79,-834.76 824.52,-1006.93 58.95,-43.39 127.22,-55.01 198.55,-40.29 70.93,14.6 137.66,56.4 176.13,118.53 26.22,42.33 32.23,86.83 35.98,135.89 26.59,348.51 5.88,713.34 6.04,1063.15 0.13,242.54 29.26,731.25 -19.05,949.59 -58,62.76 -117.29,100.67 -205.24,103.85 -81.94,2.96 -144.49,-26.75 -212.38,-68.21 -23.55,-34.93 -39.95,-64.19 -46.73,-106.31 -21.75,-135.26 -8.81,-285.17 -7.62,-421.91l2.04 -615.45 -0.08 -343.98c-183.73,228.49 -411.96,616.16 -607.46,800.87 -42.97,40.58 -96.23,78.55 -158.48,72.49 -50.93,-4.94 -94.25,-36.64 -130.12,-70.93 -105.12,-100.44 -187.65,-240.27 -272.42,-358.94 -103.15,-144.55 -208.71,-287.31 -316.68,-428.28l3.39 319.01c0.98,209.37 33.52,956.1 -26.14,1106.01 -2.52,6.3 -4.58,12.73 -6.88,19.08 -60.99,64.69 -119.33,103 -211.59,102.53 -76.76,-0.4 -132.4,-26.67 -192.91,-71.26l-11.11 -18.31c-22.12,-35.77 -34.42,-62.57 -39.5,-104.77 -27.62,-228.94 -8.95,-479.03 -8.13,-709.85 1.33,-368.7 -4.23,-738.48 3.81,-1107.02 2.52,-115.67 9.5,-214.23 101.23,-296.2 51.47,-45.98 125.31,-80.17 195.61,-73.58 70.96,6.64 136.05,43.55 188.68,90.04 130.12,114.93 232.3,286.73 335.06,427.38 131.15,179.95 264.97,357.88 401.48,533.8z"/>
   <path class="fil0" d="M7518.29 14802.88c-29.29,-11.35 -72.36,-34.42 -87.78,-62.84 -19.85,-36.56 -11.17,-96.7 -2.6,-135.46 48.21,-217.54 132.4,-432.91 203.04,-643.95 110.09,-328.95 218.14,-658.56 324.17,-988.85 61.19,-184.86 119.04,-370.75 173.54,-557.69 38.9,-134.67 68.98,-282.65 124.14,-410.74 19.24,-44.63 46.44,-72.02 88,-97.1 67.53,-40.8 157.11,-58.71 233.82,-36.41 46.7,13.6 86.7,45.11 107.21,89.75 49.08,106.84 -13.42,227.78 -50.91,327.82 -164.64,481.82 -326.62,964.55 -485.93,1448.17 -94.38,290.38 -185.37,653.71 -314.2,921.49 -25.24,52.47 -51.54,97.18 -105.75,123.27 -62.23,29.98 -139.46,26.01 -206.75,22.54z"/>
   <path class="fil0" d="M14455.43 12921.59c-55.4,-53.45 -104.64,-108.06 -103.79,-189.87 0.63,-61.88 32.49,-117.13 77.39,-158.11 53.04,-48.42 125.62,-75.46 197.48,-70.67 31.17,2.06 59.9,10.63 85.54,28.78 158.59,112.24 323.35,307.79 464.85,446.94 136.89,134.62 294.4,264.21 414.97,412.93 41.62,51.36 61.36,93.72 53.29,161.32 -6.86,57.28 -30.88,102.9 -64.96,148.27 -174.15,157.91 -344.57,319.73 -511.25,485.49 -115.76,115.46 -229.63,253.02 -361.61,348.03 -31.83,22.91 -68.71,40.27 -108.82,38.47 -36.28,-1.61 -74.56,-11.03 -107.87,-25.08 -17.12,-11.8 -34.32,-23.79 -50.09,-37.39 -43.2,-37.22 -77.05,-90.62 -78.47,-148.93 -1.3,-52.92 17.7,-98.56 46.64,-141.98 91.44,-137.16 380.31,-384.49 511.71,-516.94l179.65 -167.69c-222.7,-195.95 -430.06,-408.89 -644.66,-613.57z"/>
   <path class="fil0" d="M9452.82 18063.18c222.99,13.37 449.53,6.04 673.02,6.49l1180.68 1.5 576.21 0.3c97.07,0 210.13,10.26 305.25,-7.49 92.26,43.68 118.45,107.1 165.39,191.79 177.24,-0.76 727.34,-49.68 848.23,70.94 30.53,30.45 41.99,66.62 40.72,108.87 -1.62,53.56 -27.68,101.13 -69.69,134.23 -89.04,70.14 -353.28,37.65 -469.32,36.43l-2780.51 1.06c-445.43,1.48 -897.89,-14.24 -1342.44,6.48 -41.7,-5.42 -91.07,-8.02 -126.39,-33.12 -36.91,-26.25 -88.4,-98.51 -91.71,-144.44 -2.62,-36.22 7.09,-60.67 31.67,-87.1 122.35,-131.76 729.83,-86.31 908.05,-85.99 21.65,-52.39 47.39,-101.07 74.32,-150.81 23.92,-19.08 50.27,-33.55 76.52,-49.14z"/>
  </g>
  <path class="fil1" d="M12369.38 6789.13c0,0 -35.28,-15.49 284.34,68.42 279.83,38.05 590.5,159.65 852.41,266.3 76.71,31.4 152.87,64.07 228.47,98 75.62,33.96 150.65,69.17 225.08,105.63 74.44,36.46 148.24,74.15 221.4,113.08 73.17,38.95 145.67,79.1 217.49,120.46 71.83,41.37 142.93,83.92 213.31,127.67 70.4,43.74 140.04,88.65 208.94,134.72 68.9,46.09 137,93.32 204.31,141.69 67.29,48.36 133.77,97.84 199.42,148.43 65.65,50.59 130.44,102.26 194.36,155.02 63.92,52.76 126.94,106.57 189.05,161.45 62.12,54.87 123.3,110.77 183.54,167.69 60.24,56.94 119.51,114.86 177.82,173.78 58.3,58.89 115.59,118.76 171.88,179.6 56.3,60.83 111.56,122.59 165.79,185.26 54.22,62.69 107.37,126.27 159.46,190.74 52.11,64.45 103.11,129.76 153.01,195.95 36.56,47.67 72.54,95.79 107.92,144.35 35.37,48.56 70.13,97.55 104.3,146.98 34.17,49.42 67.72,99.25 100.67,149.49 32.93,50.25 65.25,100.9 96.95,151.95 31.7,51.05 62.75,102.47 93.16,154.28 30.43,51.8 60.21,103.98 89.35,156.52 29.14,52.55 57.62,105.45 85.46,158.7 27.83,53.25 55,106.84 81.52,160.76 26.51,53.91 52.35,108.14 77.52,162.69 25.17,54.56 49.66,109.42 73.47,164.58 23.83,55.15 46.98,110.6 69.43,166.34 22.45,55.72 44.21,111.71 65.27,167.98 21.08,56.27 41.45,112.79 61.12,169.55 19.69,56.76 38.67,113.76 56.94,171 18.27,57.24 35.83,114.69 52.68,172.37 16.86,57.66 33.01,115.53 48.44,173.6 15.42,58.07 30.13,116.32 44.14,174.75 13.99,58.42 27.25,117.02 39.79,175.79 12.56,58.76 24.38,117.65 35.45,176.69 11.1,59.06 21.47,118.24 31.12,177.54 9.63,59.3 18.53,118.72 26.7,178.25 8.16,59.53 15.6,119.15 22.3,178.86 6.7,59.7 12.66,119.48 17.89,179.33 5.22,59.85 9.71,119.76 13.46,179.73 3.74,59.96 6.75,119.96 9.03,180 2.27,60.04 3.8,120.1 4.57,180.18 0.8,60.08 0.85,120.16 0.16,180.23 -0.7,60.08 -2.14,120.14 -4.31,180.18 -2.19,60.05 -5.11,120.05 -8.76,180.03 -3.65,59.97 -8.04,119.89 -13.18,179.76 -5.13,59.85 -11,119.63 -17.62,179.36 -6.59,59.72 -13.93,119.35 -22.01,178.88 -8.08,60.38 -16.91,120.64 -26.48,180.79 -9.58,60.15 -19.91,120.17 -30.99,180.05 -11.06,59.9 -22.87,119.65 -35.43,179.25 -12.54,59.61 -25.82,119.04 -39.84,178.31 -14.04,59.27 -28.81,118.35 -44.29,177.24 -15.49,58.92 -31.71,117.63 -48.66,176.14 -16.95,58.49 -34.63,116.76 -53.05,174.83 -18.4,58.07 -37.51,115.89 -57.33,173.46 -19.85,57.59 -40.4,114.93 -61.65,172.01 -21.26,57.08 -43.22,113.88 -65.88,170.42 -22.67,56.53 -46.03,112.77 -70.09,168.72 -24.08,55.95 -48.83,111.59 -74.27,166.93 -25.45,55.35 -51.58,110.36 -78.4,165.04 -26.81,54.7 -54.3,109.05 -82.47,163.04 -28.15,54.01 -56.97,107.66 -86.46,160.95 -29.49,53.3 -59.65,106.22 -90.46,158.75 -30.8,52.54 -62.25,104.7 -94.35,156.47 -32.11,51.75 -64.85,103.11 -98.24,154.07 -33.38,50.94 -67.38,101.47 -102,151.58 -34.63,50.09 -69.88,99.75 -105.75,148.98 -35.86,49.23 -72.33,98.01 -109.41,146.35 -37.08,48.31 -74.74,96.16 -113,143.56 -38.26,47.38 -77.11,94.28 -116.55,140.7 -39.42,46.43 -79.42,92.36 -119.99,137.8 -40.57,45.42 -81.7,90.34 -123.38,134.75 -41.68,44.42 -83.9,88.3 -126.68,131.66 -42.77,43.35 -86.08,86.17 -129.94,128.45 -43.83,42.3 -88.18,84.03 -133.05,125.2 -44.88,41.19 -90.25,81.81 -136.13,121.87 -45.88,40.06 -92.25,79.54 -139.12,118.45 -46.87,38.91 -94.2,77.24 -142,114.97 -47.82,37.73 -96.1,74.86 -144.83,111.39 -74.02,56.53 -149.1,111.61 -225.24,165.23 -76.15,53.62 -153.31,105.75 -231.49,156.39 -78.16,50.64 -157.27,99.75 -237.33,147.32 -80.06,47.59 -161.02,93.61 -242.86,138.06 -81.83,44.45 -164.49,87.31 -247.99,128.56 -83.51,41.26 -167.77,80.89 -252.79,118.88 -85.04,37.99 -170.77,74.33 -257.2,109.01 -86.43,34.7 -173.5,67.7 -261.22,99.01 -225.93,78.82 -464,123.58 -687.26,205.66 -82.81,30.43 -143.87,45.23 -225.42,62.6 -791.08,118 -1369.64,158.88 -2175.09,84.61 -116.47,-10.77 -291.23,-14.21 -397.85,-54.58 15.87,-0.27 5.76,0.84 29.47,-8.07 -44.69,-20.75 -98.9,-19.34 -147.37,-27.6 -164.41,-28.02 -337.8,-49.71 -496.94,-99.38l-34.64 13.42c-462.25,-109.17 -930.17,-275.04 -1356.99,-483.37 -280.78,-93.66 -665.8,-327.95 -917.63,-491.07 -127.63,-60.29 -259.16,-167.9 -373.75,-251.35 -602.4,-438.73 -1127.44,-944.93 -1571.31,-1544 -561.05,-766.92 -949.98,-1658.6 -1179.27,-2579.16 -14.43,-58.7 -28.14,-117.56 -41.14,-176.58 -13,-59.04 -25.28,-118.23 -36.83,-177.56 -11.56,-59.32 -22.39,-118.79 -32.49,-178.39 -10.11,-59.6 -19.49,-119.31 -28.13,-179.12 -8.64,-59.83 -16.56,-119.75 -23.76,-179.76 -7.18,-60.02 -13.63,-120.12 -19.34,-180.28 -5.73,-60.19 -10.72,-120.43 -14.95,-180.72 -4.25,-60.29 -7.77,-120.63 -10.56,-181.02 -2.77,-60.38 -4.8,-120.79 -6.11,-181.22 -1.3,-60.43 -1.88,-120.87 -1.72,-181.32 0.18,-60.45 1.09,-120.87 2.73,-181.29 1.64,-60.43 4.02,-120.82 7.14,-181.18 3.12,-60.36 6.98,-120.68 11.56,-180.95 4.59,-60.27 9.91,-120.49 15.96,-180.63 6.07,-60.13 12.86,-120.19 20.37,-180.16 7.53,-59.99 15.79,-119.86 24.77,-179.62 8.98,-59.78 18.68,-119.45 29.13,-179 10.44,-59.53 21.6,-118.93 33.49,-178.19 11.89,-59.27 24.5,-118.38 37.84,-177.33 13.32,-58.96 27.36,-117.75 42.12,-176.37 14.76,-58.61 30.24,-117.03 46.43,-175.26 16.19,-58.24 33.09,-116.27 50.7,-174.09 17.6,-57.84 35.9,-115.45 54.9,-172.83 19.01,-57.38 38.73,-114.51 59.13,-171.4 20.41,-56.9 41.51,-113.54 63.29,-169.91 21.79,-56.39 44.25,-112.5 67.39,-168.33 23.16,-55.84 47,-111.39 71.52,-166.63 24.5,-55.27 49.68,-110.22 75.54,-164.87 25.84,-54.62 52.35,-108.93 79.53,-162.93 27.16,-53.99 54.99,-107.65 83.48,-160.97 28.48,-53.3 57.61,-106.26 87.39,-158.88 29.77,-52.6 60.18,-104.83 91.23,-156.69 26.28,-43.76 53.02,-87.24 80.22,-130.44 27.2,-43.2 54.85,-86.11 82.94,-128.74 28.1,-42.62 56.64,-84.94 85.62,-126.98 28.98,-42.01 58.41,-83.73 88.27,-125.14 29.84,-41.42 60.13,-82.51 90.86,-123.27 30.71,-40.78 61.84,-81.24 93.39,-121.37 31.58,-40.11 63.56,-79.89 95.94,-119.35 32.4,-39.46 65.21,-78.57 98.43,-117.34 33.21,-38.76 66.83,-77.17 100.86,-115.23 34.01,-38.07 68.42,-75.77 103.24,-113.11 34.8,-37.34 70,-74.32 105.59,-110.94 35.58,-36.6 71.54,-72.83 107.87,-108.69 36.34,-35.84 73.05,-71.31 110.15,-106.39 37.08,-35.08 74.52,-69.78 112.34,-104.09 37.8,-34.29 75.96,-68.19 114.49,-101.7 38.52,-33.5 77.39,-66.59 116.6,-99.27 39.21,-32.69 78.76,-64.97 118.64,-96.84 39.9,-31.86 80.11,-63.29 120.65,-94.3 40.55,-31.03 81.42,-61.62 122.61,-91.78 41.18,-30.16 82.68,-59.89 124.48,-89.17 41.82,-29.3 83.94,-58.15 126.34,-86.57 42.42,-28.4 85.13,-56.36 128.14,-83.9 42.98,-27.52 86.26,-54.57 129.83,-81.17 43.57,-26.62 87.41,-52.78 131.52,-78.48 44.12,-25.68 88.5,-50.9 133.14,-75.67 44.63,-24.76 89.52,-49.06 134.67,-72.89 45.16,-23.81 90.55,-47.16 136.19,-70.04 45.65,-22.88 91.52,-45.27 137.63,-67.17 46.09,-21.93 92.42,-43.36 138.99,-64.3 46.55,-20.94 93.32,-41.39 140.31,-61.36 46.99,-19.96 94.18,-39.44 141.57,-58.42 47.38,-18.98 94.96,-37.45 142.75,-55.43 320.59,-120.51 649.79,-210.6 981.97,-292.73 39.37,-5.64 0,0 39.37,-5.64 985.42,-223.23 2136.04,-218.49 3121.11,4.45zm-2872.37 10912.34l2669.17 -1.14 3404.68 4.79c281.31,-1.11 520.86,-77.1 720.3,-281.04 148.59,-151.92 274.98,-376.98 307.32,-588.46 31.83,-207.99 8.41,-448.02 7.11,-658.92l-3.04 -1234.01 -0.92 -2870.78c-0.06,-437.84 9.63,-877.07 2.27,-1314.69 -5.53,-330.36 -155.47,-670.48 -478.87,-804.57 -119.96,-49.75 -235.37,-56.36 -331.26,-152.51 -5.29,-5.29 -10.45,-10.69 -15.69,-16.03l-9.5 12.67c10.69,19.26 13.97,27.73 18.1,50.3 -295.7,33.78 -615.6,12.17 -913.9,12.35l-1694.47 0.35 -5559.34 -0.35 -1306.33 -3.3c-223.33,-1.94 -462.36,-26.75 -683.71,-3.02 -32.12,3.19 -63.9,8.41 -95.35,15.66 -31.47,7.23 -62.34,16.45 -92.61,27.65 -30.29,11.18 -59.73,24.25 -88.34,39.19 -28.61,14.94 -56.16,31.64 -82.63,50.11 -159.81,113.16 -262.97,293.92 -296.2,485.27 -43.79,252.28 -11.78,603.44 -11.54,866.72l-0.32 1825.36 -0.63 2493.86 -2.09 759.33c-0.45,150.31 -7.81,306.78 8.15,456.3 20.58,193.07 97.42,339.59 207.91,495.99 159.99,178.35 335.83,325.99 587.72,339.56 351.89,18.97 775.3,-5.39 1136.01,-5.55l2598 -1.09zm-120.71 410.85c-26.93,49.74 -52.67,98.42 -74.32,150.81 -178.22,-0.32 -785.7,-45.77 -908.05,85.99 -24.58,26.43 -34.29,50.88 -31.67,87.1 3.31,45.93 54.8,118.19 91.71,144.44 35.32,25.1 84.69,27.7 126.39,33.12 444.55,-20.72 897.01,-5 1342.44,-6.48l2780.51 -1.06c116.04,1.22 380.28,33.71 469.32,-36.43 42.01,-33.1 68.07,-80.67 69.69,-134.23 1.27,-42.25 -10.19,-78.42 -40.72,-108.87 -120.89,-120.62 -670.99,-71.7 -848.23,-70.94 -46.94,-84.69 -73.13,-148.11 -165.39,-191.79 -95.12,17.75 -208.18,7.49 -305.25,7.49l-576.21 -0.3 -1180.68 -1.5c-223.49,-0.45 -450.03,6.88 -673.02,-6.49 -26.25,15.59 -52.6,30.06 -76.52,49.14z"/>
  <path class="fil2" d="M12426.21 6885.2l10.13 -5.45 0.61 -11.62c-67.94,-11.96 -129.62,-32.65 -195.95,-47.25 -88.24,-19.4 -180.1,-25.88 -269.19,-44.35l-10.55 -23.12 -2.91 19.26c-49.64,-12.96 -102.61,-19.74 -153.14,-29.18 80.3,-88.88 699.08,140.78 848.51,114.06 279.83,38.05 590.5,159.65 852.41,266.3 76.71,31.4 152.87,64.07 228.47,98 75.62,33.96 150.65,69.17 225.08,105.63 74.44,36.46 148.24,74.15 221.4,113.08 73.17,38.95 145.67,79.1 217.49,120.46 71.83,41.37 142.93,83.92 213.31,127.67 70.4,43.74 140.04,88.65 208.94,134.72 68.9,46.09 137,93.32 204.31,141.69 67.29,48.36 133.77,97.84 199.42,148.43 65.65,50.59 130.44,102.26 194.36,155.02 63.92,52.76 126.94,106.57 189.05,161.45 62.12,54.87 123.3,110.77 183.54,167.69 60.24,56.94 119.51,114.86 177.82,173.78 58.3,58.89 115.59,118.76 171.88,179.6 56.3,60.83 111.56,122.59 165.79,185.26 54.22,62.69 107.37,126.27 159.46,190.74 52.11,64.45 103.11,129.76 153.01,195.95 36.56,47.67 72.54,95.79 107.92,144.35 35.37,48.56 70.13,97.55 104.3,146.98 34.17,49.42 67.72,99.25 100.67,149.49 32.93,50.25 65.25,100.9 96.95,151.95 31.7,51.05 62.75,102.47 93.16,154.28 30.43,51.8 60.21,103.98 89.35,156.52 29.14,52.55 57.62,105.45 85.46,158.7 27.83,53.25 55,106.84 81.52,160.76 26.51,53.91 52.35,108.14 77.52,162.69 25.17,54.56 49.66,109.42 73.47,164.58 23.83,55.15 46.98,110.6 69.43,166.34 22.45,55.72 44.21,111.71 65.27,167.98 21.08,56.27 41.45,112.79 61.12,169.55 19.69,56.76 38.67,113.76 56.94,171 18.27,57.24 35.83,114.69 52.68,172.37 16.86,57.66 33.01,115.53 48.44,173.6 15.42,58.07 30.13,116.32 44.14,174.75 13.99,58.42 27.25,117.02 39.79,175.79 12.56,58.76 24.38,117.65 35.45,176.69 11.1,59.06 21.47,118.24 31.12,177.54 9.63,59.3 18.53,118.72 26.7,178.25 8.16,59.53 15.6,119.15 22.3,178.86 6.7,59.7 12.66,119.48 17.89,179.33 5.22,59.85 9.71,119.76 13.46,179.73 3.74,59.96 6.75,119.96 9.03,180 2.27,60.04 3.8,120.1 4.57,180.18 0.8,60.08 0.85,120.16 0.16,180.23 -0.7,60.08 -2.14,120.14 -4.31,180.18 -2.19,60.05 -5.11,120.05 -8.76,180.03 -3.65,59.97 -8.04,119.89 -13.18,179.76 -5.13,59.85 -11,119.63 -17.62,179.36 -6.59,59.72 -13.93,119.35 -22.01,178.88 -8.08,60.38 -16.91,120.64 -26.48,180.79 -9.58,60.15 -19.91,120.17 -30.99,180.05 -11.06,59.9 -22.87,119.65 -35.43,179.25 -12.54,59.61 -25.82,119.04 -39.84,178.31 -14.04,59.27 -28.81,118.35 -44.29,177.24 -15.49,58.92 -31.71,117.63 -48.66,176.14 -16.95,58.49 -34.63,116.76 -53.05,174.83 -18.4,58.07 -37.51,115.89 -57.33,173.46 -19.85,57.59 -40.4,114.93 -61.65,172.01 -21.26,57.08 -43.22,113.88 -65.88,170.42 -22.67,56.53 -46.03,112.77 -70.09,168.72 -24.08,55.95 -48.83,111.59 -74.27,166.93 -25.45,55.35 -51.58,110.36 -78.4,165.04 -26.81,54.7 -54.3,109.05 -82.47,163.04 -28.15,54.01 -56.97,107.66 -86.46,160.95 -29.49,53.3 -59.65,106.22 -90.46,158.75 -30.8,52.54 -62.25,104.7 -94.35,156.47 -32.11,51.75 -64.85,103.11 -98.24,154.07 -33.38,50.94 -67.38,101.47 -102,151.58 -34.63,50.09 -69.88,99.75 -105.75,148.98 -35.86,49.23 -72.33,98.01 -109.41,146.35 -37.08,48.31 -74.74,96.16 -113,143.56 -38.26,47.38 -77.11,94.28 -116.55,140.7 -39.42,46.43 -79.42,92.36 -119.99,137.8 -40.57,45.42 -81.7,90.34 -123.38,134.75 -41.68,44.42 -83.9,88.3 -126.68,131.66 -42.77,43.35 -86.08,86.17 -129.94,128.45 -43.83,42.3 -88.18,84.03 -133.05,125.2 -44.88,41.19 -90.25,81.81 -136.13,121.87 -45.88,40.06 -92.25,79.54 -139.12,118.45 -46.87,38.91 -94.2,77.24 -142,114.97 -47.82,37.73 -96.1,74.86 -144.83,111.39 -74.02,56.53 -149.1,111.61 -225.24,165.23 -76.15,53.62 -153.31,105.75 -231.49,156.39 -78.16,50.64 -157.27,99.75 -237.33,147.32 -80.06,47.59 -161.02,93.61 -242.86,138.06 -81.83,44.45 -164.49,87.31 -247.99,128.56 -83.51,41.26 -167.77,80.89 -252.79,118.88 -85.04,37.99 -170.77,74.33 -257.2,109.01 -86.43,34.7 -173.5,67.7 -261.22,99.01 -225.93,78.82 -464,123.58 -687.26,205.66 -77.15,31.2 -75.47,31.03 -225.42,62.6 -791.08,118 -1369.64,158.88 -2175.09,84.61 -116.47,-10.77 -291.23,-14.21 -397.85,-54.58 15.87,-0.27 5.76,0.84 29.47,-8.07 -44.69,-20.75 -98.9,-19.34 -147.37,-27.6 -164.41,-28.02 -337.8,-49.71 -496.94,-99.38l-14.95 -10.92c68.26,-6.04 147.61,22.49 215.03,34.76 203.09,36.94 736.6,155.39 928.21,107.05 138.74,-16.96 305.09,17.57 447.46,19.69 411.43,6.11 1219.73,-16.11 1598.14,-150.34 66.35,-18.07 120.27,-36.59 200.74,-53.52 544.46,-86.79 1154.32,-345.42 1641.52,-599.73 52.88,-27.87 105.42,-56.39 157.62,-85.54 52.19,-29.16 104.02,-58.94 155.49,-89.35 51.47,-30.41 102.56,-61.45 153.28,-93.11 50.71,-31.64 101.02,-63.91 150.94,-96.78 49.94,-32.88 99.47,-66.36 148.59,-100.44 49.11,-34.08 97.8,-68.75 146.08,-104.01 48.28,-35.26 96.11,-71.1 143.51,-107.52 47.41,-36.43 94.36,-73.42 140.86,-110.97 46.51,-37.57 92.56,-75.7 138.14,-114.38 45.58,-38.68 90.68,-77.91 135.31,-117.69 44.62,-39.77 88.77,-80.09 132.42,-120.94 43.64,-40.85 86.78,-82.22 129.44,-124.11 42.63,-41.9 84.76,-84.31 126.39,-127.24 41.61,-42.92 82.69,-86.34 123.24,-130.26 40.57,-43.9 80.59,-88.3 120.07,-133.19 39.47,-44.89 78.4,-90.26 116.78,-136.1 38.39,-45.83 76.2,-92.12 113.46,-138.88 37.25,-46.76 73.93,-93.96 110.04,-141.6 36.11,-47.65 71.63,-95.72 106.57,-144.23 34.94,-48.51 69.29,-97.43 103.03,-146.76 33.76,-49.36 66.91,-99.11 99.46,-149.25 32.54,-50.15 64.47,-100.69 95.78,-151.61 31.31,-50.91 62,-102.2 92.07,-153.88 30.08,-51.67 59.52,-103.69 88.32,-156.08 28.8,-52.37 56.97,-105.09 84.51,-158.17 27.52,-53.06 54.4,-106.45 80.64,-160.18 26.23,-53.71 51.8,-107.74 76.71,-162.08 24.92,-54.35 49.17,-108.98 72.76,-163.91 23.6,-54.93 46.52,-110.14 68.76,-165.63 22.24,-55.49 43.82,-111.24 64.72,-167.24 20.9,-56.01 41.11,-112.27 60.64,-168.78 19.53,-56.5 38.37,-113.22 56.52,-170.18 372.19,-1195.49 426.95,-2618.56 129.32,-3836.01 -147.47,-603.17 -388.3,-1194.78 -677.09,-1743.52 -24.57,-46.96 -49.65,-93.64 -75.22,-140.05 -25.6,-46.39 -51.69,-92.5 -78.29,-138.35 -26.62,-45.82 -53.72,-91.36 -81.31,-136.6 -27.6,-45.23 -55.7,-90.15 -84.29,-134.78 -28.58,-44.63 -57.65,-88.93 -87.21,-132.9 -29.56,-43.99 -59.6,-87.65 -90.12,-130.97 -30.5,-43.32 -61.48,-86.31 -92.95,-128.96 -31.45,-42.65 -63.36,-84.95 -95.75,-126.89 -32.38,-41.95 -65.23,-83.53 -98.53,-124.75 -33.3,-41.22 -67.05,-82.08 -101.23,-122.56 -34.2,-40.48 -68.84,-80.59 -103.9,-120.33 -35.07,-39.72 -70.57,-79.06 -106.5,-118.01 -35.95,-38.94 -72.31,-77.49 -109.08,-115.64 -36.78,-38.14 -73.97,-75.88 -111.58,-113.22 -37.61,-37.32 -75.62,-74.24 -114.03,-110.75 -38.42,-36.5 -77.24,-72.57 -116.45,-108.22 -39.21,-35.65 -78.81,-70.86 -118.8,-105.65 -39.97,-34.78 -80.32,-69.11 -121.07,-103 -40.73,-33.9 -81.83,-67.35 -123.29,-100.36 -41.47,-32.98 -83.3,-65.52 -125.47,-97.6 -42.19,-32.07 -84.72,-63.68 -127.58,-94.83 -42.88,-31.15 -86.1,-61.82 -129.65,-92.02 -43.53,-30.18 -87.4,-59.89 -131.6,-89.14 -44.2,-29.23 -88.73,-57.97 -133.56,-86.23 -44.82,-28.25 -89.95,-56.02 -135.39,-83.29 -45.44,-27.27 -91.17,-54.03 -137.19,-80.3 -46.04,-26.26 -92.35,-52.02 -138.93,-77.28 -46.58,-25.24 -93.44,-49.98 -140.57,-74.22 -47.13,-24.22 -94.53,-47.91 -142.19,-71.09 -47.64,-23.18 -95.54,-45.84 -143.7,-67.97 -48.15,-22.14 -96.53,-43.75 -145.15,-64.83 -48.63,-21.06 -97.48,-41.59 -146.55,-61.59 -360.12,-144.78 -706.78,-218.02 -1072.83,-331.39z"/>
  <path class="fil3" d="M5343.79 10915.81c-4.05,-176.37 -39.95,-422.06 88.56,-562.61 103.32,-112.98 224.1,-121 367.48,-123.22 796.68,-12.41 1597.28,5.58 2394.47,5.74l4365.79 -4.31 2139.21 -0.63c339.75,-0.72 769.59,-27.55 1094.98,7.91 119.35,12.99 204.7,69.69 288.74,152.34 147.5,145.05 150.15,318.75 150.44,514.27l-1.43 3635.38 0.37 1174.99c0.05,206.93 10.66,420.84 -2.73,627.11 -4.94,76.28 -16.93,195.61 -71.75,251.91 -5,5.14 -18.36,13.84 -23.89,17.73 -4.98,3.52 -9.77,7.28 -14.85,10.61 -73.87,48.71 -180.6,42.02 -265.98,44.24 -609.39,15.93 -1223.22,1.8 -1833.09,1.72l-3559.33 -0.58 -3035.38 0.76c-543.88,0.69 -1093.42,17.55 -1636.66,-0.55 -20.45,2.19 -40.72,3.49 -61.25,4.13 -98.4,3.01 -272.13,25.77 -344.86,-51.39 -33.52,-35.56 -32.44,-135.91 -34.63,-184.78 -9.34,-209.34 -3.1,-422.01 -3.31,-631.69l0.18 -1190.5 -1.08 -3698.58zm696.81 2767.94c133.51,122.45 265.25,246.76 395.23,372.93 117.87,115.91 233.1,249.9 368.19,344.75 36.25,25.45 71.89,42.99 117.03,41.01 41.22,-1.83 80.78,-14 119.86,-26.27 12.8,-11.04 25.58,-22.15 37.51,-34.16 43.53,-43.84 71.42,-104.25 67.61,-166.69 -11.78,-193.44 -358.91,-417.09 -502.9,-540.54 -75.88,-68.34 -148.38,-137.4 -217.83,-212.28 178.14,-181.08 390.47,-340.01 586.24,-502.36 62.2,-50.8 126.49,-104.99 153.43,-183.17 16.93,-49.22 20.5,-99.99 -3.7,-147.51 -40.7,-79.9 -115.81,-110.41 -197.01,-134.22 -46.31,20.5 -90.09,41.27 -130.68,71.97 -134.33,101.46 -853.12,753.58 -896.28,861.66 -18.28,45.78 -12.46,91.74 10.37,134.44 24.45,45.72 56.6,83.92 92.93,120.44zm2931.79 791.05c31.88,32.54 65.01,58.74 109.01,72.68 113.74,36.06 242.36,14.92 359.44,14.29 382.16,-2.07 785.36,16.69 1134.5,-167.91 269.48,-142.48 432.36,-374.7 520.07,-661.38 64.11,-362.11 66.25,-713.39 -152.85,-1026.55 -179.28,-256.25 -472.89,-395.08 -775.18,-444.79 -232.91,-38.34 -846.98,-47.02 -1080.58,-6.83 -76.94,52.18 -123.14,95.36 -142,189.26 -41.89,208.36 -15.85,620.07 -16.3,844.23 -0.69,342.77 -24.9,704.58 5.39,1045.45 4.56,51.25 18.95,94.37 38.5,141.55zm2537.75 28.2c60.51,44.59 116.15,70.86 192.91,71.26 92.26,0.47 150.6,-37.84 211.59,-102.53 2.3,-6.35 4.36,-12.78 6.88,-19.08 59.66,-149.91 27.12,-896.64 26.14,-1106.01l-3.39 -319.01c107.97,140.97 213.53,283.73 316.68,428.28 84.77,118.67 167.3,258.5 272.42,358.94 35.87,34.29 79.19,65.99 130.12,70.93 62.25,6.06 115.51,-31.91 158.48,-72.49 195.5,-184.71 423.73,-572.38 607.46,-800.87l0.08 343.98 -2.04 615.45c-1.19,136.74 -14.13,286.65 7.62,421.91 6.78,42.12 23.18,71.38 46.73,106.31 67.89,41.46 130.44,71.17 212.38,68.21 87.95,-3.18 147.24,-41.09 205.24,-103.85 48.31,-218.34 19.18,-707.05 19.05,-949.59 -0.16,-349.81 20.55,-714.64 -6.04,-1063.15 -3.75,-49.06 -9.76,-93.56 -35.98,-135.89 -38.47,-62.13 -105.2,-103.93 -176.13,-118.53 -71.33,-14.72 -139.6,-3.1 -198.55,40.29 -233.73,172.17 -572.34,756.18 -824.52,1006.93 -136.51,-175.92 -270.33,-353.85 -401.48,-533.8 -102.76,-140.65 -204.94,-312.45 -335.06,-427.38 -52.63,-46.49 -117.72,-83.4 -188.68,-90.04 -70.3,-6.59 -144.14,27.6 -195.61,73.58 -91.73,81.97 -98.71,180.53 -101.23,296.2 -8.04,368.54 -2.48,738.32 -3.81,1107.02 -0.82,230.82 -19.49,480.91 8.13,709.85 5.08,42.2 17.38,69 39.5,104.77l11.11 18.31zm2945.29 -1581.41c214.6,204.68 421.96,417.62 644.66,613.57l-179.65 167.69c-131.4,132.45 -420.27,379.78 -511.71,516.94 -28.94,43.42 -47.94,89.06 -46.64,141.98 1.42,58.31 35.27,111.71 78.47,148.93 15.77,13.6 32.97,25.59 50.09,37.39 33.31,14.05 71.59,23.47 107.87,25.08 40.11,1.8 76.99,-15.56 108.82,-38.47 131.98,-95.01 245.85,-232.57 361.61,-348.03 166.69,-165.75 337.1,-327.58 511.25,-485.49 34.08,-45.37 58.1,-90.99 64.96,-148.27 8.07,-67.6 -11.67,-109.96 -53.29,-161.32 -120.57,-148.72 -278.08,-278.31 -414.97,-412.93 -141.5,-139.15 -306.26,-334.7 -464.85,-446.94 -25.64,-18.15 -54.37,-26.72 -85.54,-28.78 -71.86,-4.79 -144.44,22.25 -197.48,70.67 -44.9,40.98 -76.76,96.23 -77.39,158.11 -0.85,81.81 48.39,136.42 103.79,189.87zm-6937.14 1881.29c67.29,3.47 144.52,7.44 206.75,-22.54 54.21,-26.09 80.51,-70.8 105.75,-123.27 128.83,-267.78 219.82,-631.11 314.2,-921.49 159.31,-483.62 321.29,-966.35 485.93,-1448.17 37.49,-100.04 99.99,-220.98 50.91,-327.82 -20.51,-44.64 -60.51,-76.15 -107.21,-89.75 -76.71,-22.3 -166.29,-4.39 -233.82,36.41 -41.56,25.08 -68.76,52.47 -88,97.1 -55.16,128.09 -85.24,276.07 -124.14,410.74 -54.5,186.94 -112.35,372.83 -173.54,557.69 -106.03,330.29 -214.08,659.91 -324.17,988.85 -70.64,211.04 -154.83,426.41 -203.04,643.95 -8.57,38.76 -17.25,98.9 2.6,135.46 15.42,28.42 58.49,51.49 87.78,62.84z"/>
  <path class="fil4" d="M5343.79 10915.81c122.61,-139.09 228.63,-249.87 425.82,-263.08 105.7,-7.06 1021.45,-1.98 1083.07,20.8 -85.62,4.18 -350.54,-20.45 -403.83,14.76 -20.61,101.95 -18.68,210 -29.98,313.72 -28.39,260.06 -58.55,522.6 -78.18,783.46 -12.23,162.72 -11.86,331.55 -32.76,492.97 -14.29,110.3 -81.09,221.8 -83.87,330.12 -2.12,82.18 14.81,166.29 32.07,246.19 41.69,-5.05 56.25,-25.95 87.73,-52.75l13.5 36.11c41.61,9.87 77.6,14.08 120.33,14.55 134.14,-122.82 270.9,-293.18 441.88,-361.68 13.52,1.03 31.72,0.74 44.69,4.26 -46.31,20.5 -90.09,41.27 -130.68,71.97 -134.33,101.46 -853.12,753.58 -896.28,861.66 -18.28,45.78 -12.46,91.74 10.37,134.44 24.45,45.72 56.6,83.92 92.93,120.44 -59.03,78.9 -85.94,145.7 -105.94,241.64 57.52,62.87 114.03,126.1 177.48,183.15 -6.91,28.02 -13.94,55.29 -22.23,82.94 -33.76,112.64 46.2,220.45 -55.51,314.46 -16.27,108.14 5.8,223.41 -0.87,333.16 -6.53,107.87 -56.72,199.66 -71.41,303.77 -18.07,128.17 12.86,262.28 -2.2,390.61 -27.06,230.32 -224.44,555.62 -152.42,777.24 -28.39,38.07 -48.53,12.48 -72.39,58.12 6.19,32.5 4.6,41.2 34.5,59.85 16.17,10.08 38.36,16.43 56.3,23.15 32.15,93.27 -40.61,62.95 76.79,144.49 20.16,14 12.96,7.49 26.88,29.03 -44.06,23.2 -92.71,31.93 -140.84,43.26 -20.45,2.19 -40.72,3.49 -61.25,4.13 -98.4,3.01 -272.13,25.77 -344.86,-51.39 -33.52,-35.56 -32.44,-135.91 -34.63,-184.78 -9.34,-209.34 -3.1,-422.01 -3.31,-631.69l0.18 -1190.5 -1.08 -3698.58z"/>
  <path class="fil5" d="M6040.6 13683.75c133.51,122.45 265.25,246.76 395.23,372.93 117.87,115.91 233.1,249.9 368.19,344.75 36.25,25.45 71.89,42.99 117.03,41.01 41.22,-1.83 80.78,-14 119.86,-26.27 47.7,58.21 102.05,138.82 112.79,214.89 8.17,58 -8.57,121.37 -46.73,166.32 -27.51,32.46 -66.65,47.17 -108.13,48.6 -62.74,2.15 -123.14,-21.69 -175.24,-54.95 -118.29,-75.57 -220.45,-198.94 -318.87,-298.48 -127.64,-131.3 -258.5,-259.31 -392.59,-384.01 -63.45,-57.05 -119.96,-120.28 -177.48,-183.15 20,-95.94 46.91,-162.74 105.94,-241.64z"/>
  <path class="fil5" d="M7011.54 12960.14c63.92,40.77 162.95,88.98 177.72,171.32 8.89,49.63 -22.6,84.37 -53.55,118.71 -140.52,155.92 -329.2,292.58 -492.58,424.61 -75.88,-68.34 -148.38,-137.4 -217.83,-212.28 178.14,-181.08 390.47,-340.01 586.24,-502.36z"/>
  <path class="fil5" d="M9432.77 12657.8c326.1,-2.09 776.39,-57.39 1024.6,199.15 140.41,145.12 176.37,365.02 168.85,559.94 -1.2,29.09 -2.87,58.14 -5.02,87.15 -1.43,147.93 -71.89,320.97 -174.18,425.51 -251.7,257.17 -687.44,201.48 -1015.92,198.51 -9.92,-369.62 -0.11,-741.94 0.48,-1111.83l1.19 -358.43z"/>
  <path class="fil6" d="M9432.77 12657.8c326.1,-2.09 776.39,-57.39 1024.6,199.15 140.41,145.12 176.37,365.02 168.85,559.94 -1.2,29.09 -2.87,58.14 -5.02,87.15l-22.28 -10.79 -12.39 -44.69c-21.85,-80.35 -48.18,-119.75 -106.33,-180.1 -268.37,-278.58 -692.76,-244.8 -1048.62,-252.23l1.19 -358.43z"/>
  <path class="fil6" d="M11095.41 13732.48c43.6,40.41 48.13,66.52 49.53,125.12 0.28,16.27 0.17,32.53 -0.35,48.79 -0.53,16.25 -1.45,32.48 -2.77,48.69 -1.33,16.21 -3.05,32.37 -5.16,48.5 -2.14,16.14 -4.66,32.2 -7.57,48.2 -2.93,16 -6.24,31.92 -9.95,47.76 -3.72,15.82 -7.82,31.56 -12.3,47.2 -4.5,15.63 -9.38,31.14 -14.63,46.54 -5.26,15.38 -10.89,30.63 -16.88,45.75 -6.02,15.12 -12.4,30.07 -19.16,44.87 -6.76,14.78 -13.87,29.4 -21.35,43.84 -7.48,14.45 -15.31,28.7 -23.5,42.76 -8.18,14.06 -16.7,27.9 -25.56,41.54 -8.87,13.63 -18.08,27.04 -27.62,40.22 -9.52,13.17 -19.37,26.11 -29.55,38.81 -10.18,12.68 -20.66,25.11 -31.43,37.28 -10.8,12.17 -21.89,24.07 -33.26,35.69 -306.55,309.09 -737.26,379.94 -1156.05,378.67 -149.06,-0.45 -607.03,35.17 -695.4,-51.99 -25.77,-25.42 -45.75,-59.4 -65.56,-89.58 -7.65,-74.86 -42.92,-247.79 9.18,-310.76 4.81,-5.79 10.87,-10.4 16.32,-15.58 31.88,32.54 65.01,58.74 109.01,72.68 113.74,36.06 242.36,14.92 359.44,14.29 382.16,-2.07 785.36,16.69 1134.5,-167.91 269.48,-142.48 432.36,-374.7 520.07,-661.38z"/>
  <path class="fil5" d="M8630.92 12287.41c39.32,14.66 68.26,26.88 100.12,54.48 3.12,9.47 9.15,18.41 9.31,28.36 0.98,57.1 -149.14,433.47 -175.63,513.61 -190.29,576 -361.6,1155.73 -561.95,1728.84 -49.77,142.32 -110.91,379.36 -183.49,504.75 -26.4,45.58 -68.68,74 -119.4,86.62 -53,13.15 -157.43,9.74 -201.91,-26.09 -27.57,-22.22 -38.2,-47.68 -40.24,-82.23 -5.26,-88.87 49.64,-199.55 60.56,-292.87 67.29,3.47 144.52,7.44 206.75,-22.54 54.21,-26.09 80.51,-70.8 105.75,-123.27 128.83,-267.78 219.82,-631.11 314.2,-921.49 159.31,-483.62 321.29,-966.35 485.93,-1448.17z"/>
  <path class="fil7" d="M13429.43 13012.42l0.08 343.98c-178.83,83.98 -466.73,812.35 -721.78,863.18 -173.09,34.48 -544.54,-731.17 -750.36,-866.91 -3.18,-2.11 -6.48,-4.02 -9.71,-6.03l-3.39 -319.01c107.97,140.97 213.53,283.73 316.68,428.28 84.77,118.67 167.3,258.5 272.42,358.94 35.87,34.29 79.19,65.99 130.12,70.93 62.25,6.06 115.51,-31.91 158.48,-72.49 195.5,-184.71 423.73,-572.38 607.46,-800.87z"/>
  <path class="fil7" d="M15580.2 13701.18c38.42,89.27 41.46,192.91 45.35,288.98 -153.22,139.01 -311.78,269.74 -459.45,415.05 -139.86,137.61 -281.96,317.93 -438.94,433.66 -42.12,31.06 -89.11,45.85 -141.55,42.49 -7.11,-0.51 -14.18,-1.4 -21.2,-2.65 -7.02,-1.23 -13.96,-2.82 -20.82,-4.76 -6.86,-1.94 -13.61,-4.23 -20.24,-6.88 -6.63,-2.63 -13.11,-5.58 -19.45,-8.86 -6.31,-3.3 -12.45,-6.91 -18.41,-10.83 -5.96,-3.91 -11.71,-8.12 -17.25,-12.62 -5.52,-4.5 -10.81,-9.27 -15.85,-14.31 -5.05,-5.04 -9.83,-10.33 -14.34,-15.85 -32.15,-39.42 -52.31,-100.73 -41.67,-151.53 10.5,-50.16 54.66,-78.89 94.27,-104.98 33.31,14.05 71.59,23.47 107.87,25.08 40.11,1.8 76.99,-15.56 108.82,-38.47 131.98,-95.01 245.85,-232.57 361.61,-348.03 166.69,-165.75 337.1,-327.58 511.25,-485.49z"/>
  <path class="fil7" d="M14455.43 12921.59c214.6,204.68 421.96,417.62 644.66,613.57l-179.65 167.69c-69.59,-54.29 -131.42,-137.58 -192.94,-201.98 -124.06,-129.89 -250.9,-256.62 -373.03,-388.44 31.01,-65.24 65.75,-127.84 100.96,-190.84z"/>
  <path class="fil7" d="M11914.64 14471.73c48.79,101.76 29.9,229.16 24.13,338.72 -48.87,71.78 -99.19,124.62 -188.44,140.18 -60.01,10.47 -121.84,-7.36 -169.86,-44.08 -58.9,-45.09 -96.31,-121.1 -103.98,-194.13 -6.49,-62.07 -3.79,-159.68 33.65,-209.42 60.51,44.59 116.15,70.86 192.91,71.26 92.26,0.47 150.6,-37.84 211.59,-102.53z"/>
  <path class="fil7" d="M13899.44 14464.43c26.59,110.73 41.56,259.58 -24.85,359.3 -37.81,56.78 -98.61,89.06 -165.2,98.66 -60.73,8.79 -123.35,-0.37 -173.49,-37.67 -45.48,-33.87 -73.32,-93.37 -79.4,-149.02 -6.8,-62.01 -15.64,-186.87 25.32,-235.63 67.89,41.46 130.44,71.17 212.38,68.21 87.95,-3.18 147.24,-41.09 205.24,-103.85z"/>
  <path class="fil6" d="M5175.28 17368.55c159.99,178.35 335.83,325.99 587.72,339.56 351.89,18.97 775.3,-5.39 1136.01,-5.55l2598 -1.09c0.74,95.62 17.99,286.84 -44.19,361.71 -26.25,15.59 -52.6,30.06 -76.52,49.14 -821.79,39.47 -1653.24,16.06 -2476.13,11.14 -359.14,-2.17 -858.17,-33.74 -1199.3,22.49 -17.73,-21.44 -37.49,-50.28 -59.16,-67.37 -30.74,-24.21 -47.62,-18.89 -83.98,-16.27 -45.77,-24.69 -84.82,-68.31 -118.93,-107.55 -76.52,-88.03 -310.78,-388.46 -302.36,-503.29 13.52,-22.31 24.76,-40.93 33.44,-65.78 1.98,-5.66 3.6,-11.43 5.4,-17.14z"/>
  <path class="fil5" d="M9497.01 17701.47l2669.17 -1.14c-0.37,104.62 -20.46,268.34 21.8,363.65 -95.12,17.75 -208.18,7.49 -305.25,7.49l-576.21 -0.3 -1180.68 -1.5c-223.49,-0.45 -450.03,6.88 -673.02,-6.49 62.18,-74.87 44.93,-266.09 44.19,-361.71z"/>
 </g>
</svg>
